# xmcd
#
# Track frame offsets: 
#        150
#        41268
#        83980
#        123417
#        151204
#        188059
#        221758
#        253730
#        289206
#        326679
#
# Disc length: 4775 seconds
#
# Revision: 1
# Processed by: cddbd v1.5.2PL0 Copyright (c) Steve Scherf et al.
# Submitted via: ExactAudioCopy v0.95b4
#
DISCID=8d12a50a
DTITLE=Alexandr Berenson - Life As a Creative Process (2004) [FLAC] {I
DTITLE=gor Butman - ts}
DYEAR=2004
DGENRE=Jazz
TTITLE0=New Song
TTITLE1=Desiderata
TTITLE2=It Passed
TTITLE3=Bad Luck Happens To Everyone
TTITLE4=Life As a Creative Process
TTITLE5=What about Latin?
TTITLE6=Twin Waltz
TTITLE7=Praising Isaaih
TTITLE8=About Everything Right Away
TTITLE9=Melody for Anna-Maria
EXTD=YEAR: 2004
EXTT0=
EXTT1=
EXTT2=
EXTT3=
EXTT4=
EXTT5=
EXTT6=
EXTT7=
EXTT8=
EXTT9=
PLAYORDER=
